HIERARCHY
ROOT Hips
{
  OFFSET -331.093 83.8371 -317.828
  CHANNELS 6 Xposition Yposition Zposition Zrotation Xrotation Yrotation
  JOINT LeftUpLeg
  {
    OFFSET 8.64259 1.95398 -2.38835
    CHANNELS 3 Zrotation Xrotation Yrotation
    JOINT LeftLeg
    {
      OFFSET 43.7702 0 0
      CHANNELS 3 Zrotation Xrotation Yrotation
      JOINT LeftFoot
      {
        OFFSET 40.6238 0 0
        CHANNELS 3 Zrotation Xrotation Yrotation
        JOINT LeftToeBase
        {
          OFFSET 12.7242 0 0
          CHANNELS 3 Zrotation Xrotation Yrotation
          End Site
          {
            OFFSET 0 0 0
          }
        }
      }
    }
  }
  JOINT RightUpLeg
  {
    OFFSET -8.2249 1.95398 -2.59336
    CHANNELS 3 Zrotation Xrotation Yrotation
    JOINT RightLeg
    {
      OFFSET 43.5653 0 0
      CHANNELS 3 Zrotation Xrotation Yrotation
      JOINT RightFoot
      {
        OFFSET 40.6238 0 0
        CHANNELS 3 Zrotation Xrotation Yrotation
        JOINT RightToeBase
        {
          OFFSET 12.7242 0 0
          CHANNELS 3 Zrotation Xrotation Yrotation
          End Site
          {
            OFFSET 0 0 0
          }
        }
      }
    }
  }
  JOINT Spine
  {
    OFFSET 0.165834 0.87714 6.61349
    CHANNELS 3 Zrotation Xrotation Yrotation
    JOINT Spine1
    {
      OFFSET 7.38963 1.71661e-005 0
      CHANNELS 3 Zrotation Xrotation Yrotation
      JOINT Spine2
      {
        OFFSET 11.9445 1.14441e-005 0
        CHANNELS 3 Zrotation Xrotation Yrotation
        JOINT Spine3
        {
          OFFSET 14.7254 4.19617e-005 0
          CHANNELS 3 Zrotation Xrotation Yrotation
          JOINT Spine4
          {
            OFFSET 10.9679 0 0
            CHANNELS 3 Zrotation Xrotation Yrotation
            JOINT RightShoulder
            {
              OFFSET 2.46616 -1.6653 3.69651
              CHANNELS 3 Zrotation Xrotation Yrotation
              JOINT RightArm
              {
                OFFSET 13.0012 0 0
                CHANNELS 3 Zrotation Xrotation Yrotation
                JOINT RightForeArm
                {
                  OFFSET 28.7848 1.62311e-005 0
                  CHANNELS 3 Zrotation Xrotation Yrotation
                  JOINT RightHand
                  {
                    OFFSET 26.5688 1.62095e-005 0
                    CHANNELS 3 Zrotation Xrotation Yrotation
                    End Site
                    {
                      OFFSET 0 0 0
                    }
                  }
                }
              }
            }
            JOINT LeftShoulder
            {
              OFFSET 2.38034 -1.29275 -3.7523
              CHANNELS 3 Zrotation Xrotation Yrotation
              JOINT LeftArm
              {
                OFFSET 16.3182 6.07031e-005 0
                CHANNELS 3 Zrotation Xrotation Yrotation
                JOINT LeftForeArm
                {
                  OFFSET 27.0901 0 0
                  CHANNELS 3 Zrotation Xrotation Yrotation
                  JOINT LeftHand
                  {
                    OFFSET 24.5451 1.51738e-005 0
                    CHANNELS 3 Zrotation Xrotation Yrotation
                    End Site
                    {
                      OFFSET 0 0 0
                    }
                  }
                }
              }
            }
            JOINT Neck
            {
              OFFSET 5.0226 -0.0266342 0
              CHANNELS 3 Zrotation Xrotation Yrotation
              JOINT Head
              {
                OFFSET 6.69364 2.86102e-005 0
                CHANNELS 3 Zrotation Xrotation Yrotation
                End Site
                {
                  OFFSET 0 0 0
                }
              }
            }
          }
        }
      }
    }
  }
}
MOTION
Frames:	14
Frame Time:	0.0416667
-108.761 93.3133 -72.8798 43.4763 -60.0569 54.83 -169.952 62.8289 93.8747 -39.6112 11.3574 -7.01639 54.8418 -5.13837 -0.55659 45.4002 24.0643 21.388 175.769 -3.88186 89.2718 -36.0958 -7.59662 -7.81163 48.1591 5.25388 4.2154 25.8986 -0.930918 -10.5069 1.39818 7.49373 -89.7548 11.8893 2.89573 0.177104 0.221555 2.90075 0.0493829 -22.3372 2.70852 1.03984 -2.32454 2.70853 1.03984 93.2412 -33.7824 -98.918 34.9332 -12.0096 12.7356 -15.5363 7.88893 -111.112 -22.9235 -0.82311 -1.05577 -93.4013 -44.8169 72.6835 -45.7752 0.781922 52.7961 2.53662 -6.94967 -88.7431 26.4579 3.01564 7.66272 -0.663222 1.9921 3.31601 15.6195 1.17866 -2.07533 
-101.118 92.9479 -63.0103 50.0992 -58.3937 61.1754 -166.563 57.0053 89.4628 -42.8411 11.2628 -7.40195 56.7447 -3.96951 -0.693943 43.187 23.7893 25.1791 179.33 1.17673 92.3828 -57.177 -3.07094 -7.2796 45.8444 6.25067 5.06969 24.1775 -0.483414 -7.25089 0.995848 7.70415 -89.6865 11.4631 2.1278 0.408235 -0.206115 2.14373 0.31415 -22.7525 1.90671 1.02907 -2.73987 1.90671 1.02906 91.8697 -35.5784 -100.982 36.1973 -12.7135 17.5676 -11.8054 4.91454 -100.259 -21.4374 -0.845694 -0.635351 -93.5439 -46.5777 72.9843 -41.077 -0.0316273 47.0355 4.46004 -5.94734 -89.678 27.815 2.19526 4.09076 -4.01205 2.59549 2.64852 17.9995 1.8046 -2.61126 
-93.3242 91.9053 -53.6266 61.0329 -56.3386 69.0853 -165.102 47.6359 85.1061 -49.9756 14.8652 -7.41881 62.3052 1.9745 4.60656 42.4417 15.6288 11.8389 178.065 8.43887 92.6489 -81.2461 1.31073 -4.47011 46.6823 4.79072 3.69773 25.9844 -0.697509 -7.95757 0.458426 8.32623 -89.3721 10.2148 1.20022 1.14489 -1.45603 1.24943 1.09096 -23.9896 0.800675 1.45264 -3.97692 0.800674 1.45263 91.349 -38.4078 -101.127 36.9274 -15.3068 21.8891 -8.39282 3.90983 -88.8058 -22.4157 -0.536389 -2.44421 -94.6843 -48.2633 71.7612 -34.6677 0.277514 39.448 4.69123 -5.85236 -93.6644 32.7182 2.55518 4.00319 -7.50759 3.17768 1.33408 21.6931 2.48583 -2.59963 
-85.9329 90.1587 -45.3382 63.5845 -54.5939 69.5073 -163.906 41.1191 81.5523 -55.4424 13.0604 -7.43978 67.2495 7.44741 7.78899 49.1328 18.1856 4.66773 177.346 24.5927 92.8085 -102.172 6.71884 -3.11395 47.0331 2.26743 1.66264 29.2471 -1.10795 -8.96245 0.0262759 8.68493 -88.977 9.49498 0.513032 1.98899 -2.17732 0.600055 1.96449 -24.7004 -0.108321 2.0512 -4.6877 -0.108321 2.05121 90.1461 -40.5569 -102.611 38.5202 -17.2269 26.5233 -4.66272 1.42931 -76.6321 -22.4093 -0.826418 -0.952711 -95.8058 -49.2502 70.3969 -26.9561 0.236672 29.3871 10.7701 -6.35389 -100.112 32.4374 3.48018 6.99368 -8.47199 4.02836 -0.0844669 25.1091 3.44662 -2.19222 
-78.5047 88.367 -37.5183 62.9059 -51.6361 69.1473 -165.404 35.4901 80.7056 -57.5402 13.013 -6.77454 70.4982 11.4503 10.2496 56.4689 24.15 3.74399 174.779 45.0169 95.9168 -113.703 8.02891 -2.90094 47.7707 0.704737 0.35038 31.4873 -1.35376 -9.21984 -0.450962 8.61985 -89.006 9.63255 -0.450116 2.00702 -2.03991 -0.36139 2.02486 -24.5652 -1.03239 1.77908 -4.55259 -1.03241 1.77906 89.5477 -40.1294 -103.762 42.7973 -20.5316 34.4659 -3.55344 -0.573577 -67.8735 -21.9507 -0.753289 -1.24388 -94.186 -47.5002 72.282 -23.8526 3.17349 18.0794 14.6924 -9.16509 -106.583 33.9048 4.29628 8.96416 -6.07518 4.854 0.146011 22.8351 4.07994 -3.09007 
-69.811 87.9742 -28.0144 64.8073 -48.1002 73.6691 -169.288 25.7128 85.0027 -54.5489 16.4425 -4.81701 71.3812 12.6535 10.526 60.8045 27.9075 3.48037 167.512 57.8236 103.33 -110.966 8.49632 -2.51329 51.8317 0.360258 0.0322458 35.3333 -2.26493 -12.1146 -0.884561 8.48911 -89.5157 9.9026 -1.54325 1.08604 -1.76795 -1.49395 1.15291 -24.3092 -1.79827 0.571942 -4.29652 -1.79827 0.571942 89.2528 -41.1014 -103.97 46.5051 -22.4486 46.0557 -1.88786 -1.26041 -65.6025 -20.0277 -0.651466 -1.44053 -91.5065 -43.8533 75.3833 -25.6668 6.04 12.3567 18.1431 -14.3355 -115.437 30.6139 3.86029 8.91843 -4.80661 5.62424 -0.505699 21.8025 5.18068 -1.8507 
-59.6186 89.0921 -17.482 67.8838 -48.8154 78.1682 -170.97 10.3654 92.3083 -43.8298 18.5858 -3.60144 68.1967 7.09063 4.21252 53.2932 26.1506 11.4992 167.993 62.0742 104.812 -97.7003 4.69811 -1.1512 56.5372 0.787131 0.245629 33.7326 -1.91888 -11.2648 -1.10211 8.49651 -89.9374 9.88481 -2.1682 0.299181 -1.7844 -2.15294 0.394354 -24.3338 -2.15784 -0.366606 -4.32114 -2.15784 -0.3666 88.7792 -40.7122 -104.89 50.2661 -22.8166 56.6129 -0.082993 -0.343446 -66.7233 -19.1003 -0.538469 -1.93235 -90.4332 -42.7229 76.796 -26.6242 6.92751 11.3914 19.6036 -18.5745 -123.044 33.1528 3.92826 8.12728 -4.25997 6.69475 -0.382201 19.3805 6.70816 0.563225 
-49.3964 90.9065 -6.85908 69.8775 -48.6912 80.7979 -172.448 -4.74784 87.0787 -23.9019 24.1043 -1.15587 49.5524 -7.32234 -5.11074 38.9986 14.6835 16.365 168.622 61.2891 103.655 -75.9168 0.962013 1.12373 57.3466 1.69767 0.951946 34.998 -2.31078 -12.537 -1.36803 8.36843 -90.28 10.1354 -2.8536 -0.314138 -1.53236 -2.86468 -0.188152 -24.0894 -2.62719 -1.15782 -4.0768 -2.62718 -1.15782 90.0226 -38.1778 -103.535 55.5871 -23.987 63.5277 3.42956 2.07678 -68.7613 -19.2172 -0.472574 -2.34039 -90.6563 -42.9325 76.4926 -26.9501 7.72673 13.4174 19.823 -20.9011 -126.805 32.9978 3.79154 7.7408 -4.32956 7.30962 -0.751917 14.1377 7.68308 2.98717 
-39.2449 92.6063 3.93718 67.6051 -48.4563 78.5418 -175 -12.7025 92.1101 -16.3657 27.3633 0.819283 38.0073 -13.4485 -8.28052 19.5149 -5.24275 14.939 172.79 58.3082 99.8269 -49.4468 -1.53201 2.61633 56.7317 2.05164 1.31264 41.1797 -3.09131 -12.468 -1.60051 7.9573 -90.4331 10.9535 -3.38657 -0.538716 -0.71309 -3.40699 -0.388979 -23.2776 -3.06798 -1.53251 -3.26493 -3.06797 -1.53249 90.4115 -36.5282 -103.348 58.7287 -24.9271 67.3144 7.13672 4.46403 -71.2812 -18.8278 -0.286704 -3.4125 -90.7966 -42.9876 76.282 -28.7883 8.46722 17.4369 18.2623 -19.7392 -125.464 33.3085 3.23872 5.95706 -6.01281 7.39766 -0.373989 12.6589 7.88761 4.35269 
-29.4302 92.8162 14.1796 64.9893 -49.2956 73.1266 -177.516 -7.54024 86.7989 -33.4482 15.5895 1.40746 45.5909 -9.23587 -5.12075 17.3439 -7.39896 13.155 176.37 56.1319 96.2006 -34.3693 -2.26771 1.95011 53.6921 3.24994 2.33421 45.841 -3.76501 -12.6088 -1.54847 7.77009 -90.1373 11.338 -3.14532 0.0410782 -0.329195 -3.14045 0.179613 -22.8931 -3.01211 -0.906987 -2.88046 -3.01212 -0.906999 90.2623 -38.3295 -103.065 55.8356 -24.3828 64.4548 9.53246 5.4915 -72.3695 -19.9477 -0.240073 -3.83035 -91.0775 -42.6048 75.7274 -29.9711 9.83122 19.5599 16.2764 -16.6062 -118.892 31.1891 3.44103 7.30398 -4.42701 6.9047 -0.597863 12.3721 7.41343 4.42777 
-19.8242 92.2475 24.101 68.9129 -51.6753 74.4075 -174.341 -2.40507 87.8849 -55.4387 11.8926 0.411139 46.1025 -9.56754 -2.6048 18.2279 -6.61832 12.8877 176.64 52.1792 96.2075 -40.0948 -4.52393 1.14357 54.4288 3.07473 2.116 42.7964 -3.09452 -11.3994 -1.2588 8.21537 -90.0132 10.4469 -2.51352 0.194286 -1.22169 -2.50253 0.304785 -23.7757 -2.45563 -0.570581 -3.76308 -2.45563 -0.57059 90.5373 -39.8024 -102.157 50.1373 -23.6367 56.212 13.6684 6.85948 -71.857 -22.7921 -0.423575 -3.30473 -93.5155 -44.7466 72.4837 -28.5768 8.95737 21.0664 13.9257 -11.8503 -108.213 29.0105 2.85792 6.10174 -4.56168 5.80504 2.06208 13.6207 5.855 2.56352 
-10.613 91.5137 34.015 75.3668 -51.7588 81.0772 -170.191 8.82156 88.145 -78.2311 12.8608 1.32473 48.5624 -8.1293 -1.27067 22.5172 -2.36623 15.2497 175.383 43.2494 98.1106 -47.8948 -3.9855 0.924103 63.1436 -0.674634 -0.472177 34.9043 -0.72366 -3.57282 -1.10092 8.78071 -90.1831 9.31211 -2.27766 -0.197808 -2.35684 -2.28413 -0.0973277 -24.9063 -2.11287 -0.873494 -4.89367 -2.11286 -0.873504 89.9021 -41.6657 -102.708 44.1511 -22.045 46.3778 17.1745 8.57958 -72.231 -26.3879 -0.69711 -2.6509 -95.1371 -46.334 70.4803 -28.1434 9.48852 23.3197 8.05638 -8.2548 -95.4425 31.82 2.94377 5.50117 -7.05149 4.95302 2.59097 16.4694 5.03628 2.27161 
-2.1205 90.1068 44.0529 77.0375 -50.6149 85.3859 -169.385 25.5502 94.2152 -96.1716 14.2715 3.0287 50.5955 -6.54185 0.29358 27.5236 2.90167 16.9324 174.75 34.9944 102.253 -53.5641 2.09796 0.911364 76.6943 -6.83271 -3.44404 35.8276 -0.497088 -2.04488 -0.83465 9.05636 -90.5296 8.75284 -1.90031 -0.920582 -2.91692 -1.93898 -0.83604 -25.4577 -1.53579 -1.4492 -5.44503 -1.53578 -1.4492 89.9778 -40.7014 -102.858 40.8952 -19.9126 35.3452 14.6925 7.25066 -74.66 -30.7052 -0.968503 -2.17073 -95.1482 -47.3116 70.7726 -29.8613 10.193 25.2228 9.41159 -5.46358 -83.4424 38.3396 3.4778 5.21939 -5.91651 4.23016 2.9162 16.0791 4.19074 1.84433 
6.33937 89.7079 53.3068 69.2111 -53.2786 78.3586 -164.324 45.8045 91.1031 -101.214 12.6394 2.95912 52.2917 -5.4615 0.789047 30.8964 6.73735 18.3229 177.164 30.0869 101.728 -53.034 1.79117 -1.21751 81.4607 -9.59084 -4.38274 42.4215 -0.993725 -3.11629 -0.0703675 8.59952 -90.3671 9.67334 -0.306145 -0.7041 -1.99775 -0.33685 -0.689942 -24.5314 -0.0803752 -0.763543 -4.51876 -0.0804006 -0.763561 90.5063 -38.7563 -102.51 39.0631 -15.9171 26.7229 9.33899 5.58425 -82.6087 -32.556 -0.821066 -2.72395 -95.9114 -48.5782 70.0317 -32.0815 10.5844 31.2264 8.0739 -3.33135 -78.48 40.9995 4.22236 6.44786 -3.59092 3.30913 2.41071 13.6269 3.22509 1.74061 
